# xmcd
#
# Track frame offsets:
#	183
#	16238
#	30638
#	44198
#	68583
#	87135
#	101585
#	122185
#	137483
#	154815
#	166880
#
# Disc length: 2396 seconds
#
# Revision: 1
# Processed by: cddbd v1.5.1PL0 Copyright (c) Steve Scherf et al.
# Submitted via: audiograbber 1.83.01
#
DISCID=89095a0b
DTITLE=John Brim and Pinetop Perkins - Chicago Blues Session 12
DYEAR=1989
DGENRE=East Texas Blues
TTITLE0=I'm gonna let you go
TTITLE1=Take it easy baby
TTITLE2=Let me hold you
TTITLE3=High Heel Sneakers
TTITLE4=Driving Wheel
TTITLE5=Naptown
TTITLE6=Going Down Slow
TTITLE7=Call Me Easy Papa
TTITLE8=How Long
TTITLE9=You Put the Heart on Me
TTITLE10=Movin' Out
EXTD=Wolf Records 120.858 CD
EXTT0=
EXTT1=
EXTT2=
EXTT3=
EXTT4=
EXTT5=
EXTT6=
EXTT7=
EXTT8=
EXTT9=
EXTT10=
PLAYORDER=
